<?xml version="1.0" encoding="UTF-8" standalone="no"?>
<!-- Generator: Adobe Illustrator 18.0.0, SVG Export Plug-In . SVG Version: 6.00 Build 0)  -->

<svg
   version="1.1"
   id="Capa_1"
   x="0px"
   y="0px"
   viewBox="0 0 295.485 289.365"
   xml:space="preserve"
   sodipodi:docname="save_preset.svg"
   width="295.48499"
   height="289.36499"
   inkscape:version="1.2 (dc2aedaf03, 2022-05-15)"
   xmlns:inkscape="http://www.inkscape.org/namespaces/inkscape"
   xmlns:sodipodi="http://sodipodi.sourceforge.net/DTD/sodipodi-0.dtd"
   xmlns="http://www.w3.org/2000/svg"
   xmlns:svg="http://www.w3.org/2000/svg"><defs
   id="defs41" /><sodipodi:namedview
   id="namedview39"
   pagecolor="#ffffff"
   bordercolor="#666666"
   borderopacity="1.0"
   inkscape:showpageshadow="2"
   inkscape:pageopacity="0.0"
   inkscape:pagecheckerboard="0"
   inkscape:deskcolor="#d1d1d1"
   showgrid="false"
   inkscape:zoom="0.79868694"
   inkscape:cx="147.74249"
   inkscape:cy="145.23838"
   inkscape:window-width="1920"
   inkscape:window-height="1017"
   inkscape:window-x="1912"
   inkscape:window-y="-8"
   inkscape:window-maximized="1"
   inkscape:current-layer="Capa_1" />
<path
   d="M 288.865,62.568 232.917,6.621 c -4.239,-4.239 -9.988,-6.62 -15.983,-6.62 h -9.329 v 83.63 c 0,5.599 -4.539,10.138 -10.138,10.138 H 62.548 C 56.949,93.769 52.41,89.23 52.41,83.631 V 0 H 22.603 C 10.12,0 0,10.12 0,22.604 v 244.158 c 0,12.483 10.12,22.603 22.603,22.603 h 250.279 c 12.483,0 22.603,-10.12 22.603,-22.603 V 78.551 c 0,-5.994 -2.381,-11.744 -6.62,-15.983 z"
   id="path2" /><path
   d="m 164.076,73.769 h 17.333 c 3.498,0 6.333,-2.836 6.333,-6.333 V 20.769 c 0,-3.498 -2.835,-6.333 -6.333,-6.333 h -17.333 c -3.498,0 -6.333,2.835 -6.333,6.333 v 46.667 c 0,3.497 2.836,6.333 6.333,6.333 z"
   id="path4" />















</svg>
